<?xml version="1.0" encoding="utf-8"?><svg xmlns="http://www.w3.org/2000/svg" xmlns:xlink="http://www.w3.org/1999/xlink"><symbol viewBox="0 0 128 128" id="bug"><path d="M13 88h11.4c.4 3 1.1 6.4 2 9.4l-13 13.3c-2.7 2.8-2.6 7.2.1 9.8 1.4 1.3 3.1 2 4.9 2 1.8 0 3.6-.7 5-2.1l9.7-9.9c7.4 10.2 18.9 16.8 31.6 16.8h.2c12.7 0 24.1-6.5 31.5-16.8l9.7 9.9c1.4 1.4 3.2 2.1 5 2.1 1.7 0 3.5-.7 4.8-2 2.8-2.7 2.8-7.1.1-9.8l-13-13.3c1-3 1.7-6.4 2-9.4h11.4c3.8 0 7-3.2 7-7s-3.1-7-7-7h-11.8c-.5-3-1.3-6.2-2.4-9l13.7-14.1c2.7-2.8 2.6-7.2-.1-9.8-2.8-2.7-7.2-2.6-9.8.1L95.7 52l-.3.3c-4 4.1-7.8 9.1-13 11.7-3.3 1.6-6.4 2.9-10.4 3.6v27.2c0 3.8-3.2 7-7 7-4 0-7-3.1-7-7V67.6c-4-.7-7.3-2-10.6-3.6-5.2-2.6-9.2-7.6-13.2-11.7l-.3-.3-10.5-10.8c-2.7-2.8-7.1-2.8-9.8-.1-2.8 2.7-2.8 7.1-.1 9.8L27.1 65c-1.1 2.9-1.9 6-2.4 9H13c-3.8 0-7 3.2-7 7s3.1 7 7 7z"/><path d="M88.6 12.5c2.1-2.7 2-6.6-.5-9.1C86.8 2 85 1.3 83.2 1.2c-2 0-3.6.8-5 2.1-7.3 6.5-19.3 6.5-26.5 0-1.4-1.3-3.3-2.1-5.2-2.1-1.8 0-3.6.8-4.9 2.1-2.4 2.5-2.6 6.4-.5 9.1.2.3.4.5.7.7 1.5 1.4 3 2.6 4.7 3.7-3.1 3.9-4.9 8.9-4.9 14.3 0 4.3 1.2 8.2 3.2 11.7 4 6.9 11.7 11.5 20.2 11.5h.2c8.5 0 16-4.6 20-11.5 2-3.4 3.2-7.4 3.2-11.7 0-5.4-1.8-10.3-4.9-14.3 1.6-1.1 3.2-2.3 4.7-3.7 0-.1.2-.4.4-.6z"/></symbol><symbol viewBox="0 0 128 128" id="clock"><path d="M72.8 65c4.3 0 7.7 3.5 7.5 7.8-.2 4.1-3.7 7.2-7.8 7.2H53.1c-2.1 0-3.8-.6-5.1-2-1.4-1.4-2-3.1-2-5.1V44.2c0-4.1 2.9-7.6 7-7.8 4.3-.2 7.7 3.2 7.7 7.5v14.8c0 3.6 2.9 6.3 6.5 6.3h5.6zM126 48.1c-2.2-1.9-5.7-1.7-7.5.6l-3.3 4.1C110.2 26 86.6 5.5 58.3 5.5 26.4 5.5.5 31.5.5 63.4s25.9 57.8 57.8 57.8c19.2 0 37.2-9.5 47.9-25.5 2-3 1.2-7-1.7-9-3-2-7-1.2-9 1.7-8.4 12.4-22.3 19.8-37.2 19.8-24.7 0-44.8-20.1-44.8-44.8 0-24.7 20.1-44.8 44.8-44.8 21.9 0 40.1 15.8 44 36.5l-5-4c-2.3-1.8-5.7-1.3-7.4 1.1-1.6 2.3-1.1 5.5 1.1 7.2l15.7 12.4c1.1.9 2.7 1.3 4 1.1 1.3-.2 2.7-.8 3.6-1.9l12.4-15.7c1.7-2.1 1.4-5.4-.7-7.2z"/></symbol><symbol viewBox="0 0 396.494 396.494" id="design"><path d="M304.42 330.901h-43.219a2.84 2.84 0 0 1-2.834-2.834v-10.52a2.842 2.842 0 0 0-2.834-2.834h-60.475a2.842 2.842 0 0 0-2.835 2.834v10.52a2.84 2.84 0 0 1-2.835 2.834h-32.491a2.842 2.842 0 0 0-2.835 2.834v12.17a2.842 2.842 0 0 0 2.835 2.834h147.521a2.842 2.842 0 0 0 2.834-2.834v-12.17a2.84 2.84 0 0 0-2.832-2.834zm72.612-284.533h-308.4c-10.73 0-19.459 8.73-19.459 19.462v50.761c0 6.711-.498 7.66 4.004 7.66h7.72c3.778 0 3.003-.949 3.003-7.785V65.83c0-2.565 2.168-4.733 4.732-4.733h308.4c2.563 0 4.731 2.168 4.731 4.733v189.999h-219.87s-7.749-.014-7.749 10.006v23.766c0 10.006 8 10.006 8 10.006h214.888c10.729 0 19.461-8.729 19.461-19.459V65.83c0-10.731-8.73-19.462-19.461-19.462zM222.833 282.804a8.77 8.77 0 1 1-.004-17.538 8.77 8.77 0 0 1 .004 17.538z"/><path d="M124.125 141.633H12.559C5.632 141.633 0 147.266 0 154.193v183.372c0 6.926 5.632 12.561 12.559 12.561h111.566c6.923 0 12.559-5.635 12.559-12.561V154.193c0-6.927-5.636-12.56-12.559-12.56zm-69.545 12.81h27.523a2.38 2.38 0 0 1 0 4.76H54.58a2.378 2.378 0 0 1-2.379-2.379 2.378 2.378 0 0 1 2.379-2.381zm13.595 186.861a6.5 6.5 0 1 1 0-13 6.5 6.5 0 0 1 0 13zm57.718-19.104c0 1.676-1.342 3.047-2.98 3.047H13.774c-1.639 0-2.98-1.371-2.98-3.047V169.825c0-1.676 1.342-3.046 2.98-3.046h109.139c1.639 0 2.98 1.371 2.98 3.046V322.2z"/></symbol><symbol viewBox="0 0 90 90" id="facebook"><path d="M90 15.001C90 7.119 82.884 0 75 0H15C7.116 0 0 7.119 0 15.001v59.998C0 82.881 7.116 90 15.001 90H45V56H34V41h11v-5.844C45 25.077 52.568 16 61.875 16H74v15H61.875C60.548 31 59 32.611 59 35.024V41h15v15H59v34h16c7.884 0 15-7.119 15-15.001V15.001z"/></symbol></svg>